<svg xmlns="http://www.w3.org/2000/svg" viewBox="0 0 64 64" fill="none">
  <rect width="64" height="64" rx="14" fill="#13bc6d"/>
  <path d="M20 38c-3 0-6-3-6-7s3-7 6-7c1.4 0 2.7.5 3.8 1.4 1.6-3.4 5.1-5.7 9.2-5.7 5.5 0 10 4.5 10 10 0 .9-.1 1.7-.3 2.5 1.7.5 2.9 2.1 2.9 3.9 0 2.2-1.8 4-4 4H20z" fill="#ffffff"/>
  <circle cx="42" cy="22" r="2.5" fill="#0f172a"/>
  <path d="M44 17l5-1-3 4-2-3z" fill="#f59e0b"/>
  <path d="M22 41v6M28 41v6M34 41v6M40 41v6" stroke="#13bc6d" stroke-width="2.5" stroke-linecap="round"/>
</svg>
